<?xml version="1.0" encoding="iso-8859-1"?>
<!-- Generator: Adobe Illustrator 19.0.0, SVG Export Plug-In . SVG Version: 6.00 Build 0)  -->
<svg version="1.1" id="Layer_1" xmlns="http://www.w3.org/2000/svg" xmlns:xlink="http://www.w3.org/1999/xlink" x="0px" y="0px"
	 viewBox="0 0 511.999 511.999" style="enable-background:new 0 0 511.999 511.999;" xml:space="preserve">
<path style="fill:#825732;" d="M504.163,106.424v5.33c0,8.755-7.174,16.121-16.693,17.137l-28.685,5.279l-4.323-2.734
	c0-7.154-9.976-12.962-17.811-12.962h-12.955c-15.857,0-29.648-9.91-33.363-23.986l-2.601-9.877
	c-1.311-5.003,13.411-37.975,13.411-37.975l38.308,6.709c8.358,1.463,15.451,6.454,19.143,13.449
	c1.567,2.979,3.749,5.596,6.396,7.748c2.635,2.15,26.46,15.58,26.46,15.58C499.056,92.519,504.163,99.068,504.163,106.424z"/>
<g>
	<path style="fill:#F2E5CB;" d="M166.194,489.723v10.26h-38.092v-69.42h23.943v44.026
		C159.952,475.108,166.194,481.69,166.194,489.723z"/>
	<path style="fill:#F2E5CB;" d="M310.636,489.723v10.26h-38.092v-11.266c0-0.286,0.01-0.573,0.031-0.859c0,0-0.01,0,0-0.01
		c-0.318-2.12-0.053-4.356,0.869-6.475l23.222-53.311l21.95,9.56l-16.704,38.367C307.063,478.405,310.636,483.65,310.636,489.723z"
		/>
	<path style="fill:#F2E5CB;" d="M107.466,489.723v10.26H69.374v-69.42h23.943v44.026
		C101.223,475.108,107.466,481.69,107.466,489.723z"/>
	<path style="fill:#F2E5CB;" d="M405.919,489.723v10.26h-38.093v-69.42h23.943v44.026
		C399.677,475.108,405.919,481.69,405.919,489.723z"/>
</g>
<g>
	<path style="fill:#825732;" d="M116.812,447.491h23.412c18.753,0,33.956-15.202,33.956-33.955v-32.777h-68.217v55.882
		C105.963,442.634,110.821,447.491,116.812,447.491z"/>
	<path style="fill:#825732;" d="M292.086,447.317l6.771,2.949c18.666,8.128,40.392-0.362,48.599-18.992l25.435-57.733
		l-62.543-27.236l-30.597,69.45C274.41,427.876,279.942,442.029,292.086,447.317z"/>
	<path style="fill:#825732;" d="M55.418,280.965c0.006-4.528-3.661-8.2-8.189-8.2h-9.215l0,0c-16.666,0-30.178,13.511-30.178,30.177
		v45.909c0,15.645,12.683,28.327,28.328,28.327h10.936c4.518,0,8.183-3.659,8.189-8.177L55.418,280.965z"/>
</g>
<path style="fill:#FBB071;" d="M403.534,94.49c3.392,14.075,15.983,23.986,30.461,23.986h11.828c7.154,0,12.962,5.808,12.962,12.962
	v188.774c0,30.779-18.431,57.265-44.875,68.996v24.335c0,18.75-15.21,33.948-33.958,33.948h-8.183
	c-14.404,0-26.084-11.679-26.084-26.083v-25.734H117.068v17.869c0,18.75-15.21,33.948-33.959,33.948H59.697
	c-5.988,0-10.853-4.855-10.853-10.842V309.417c0-42.404,34.382-76.785,76.809-76.785h186.815c19.026,0,40.519-98.482,50.196-133.68
	c0,0-14.319-18.483,5.162-60.167c18.325-39.215,101.06-29.676,100-7.419s-22.745,21.982-22.745,21.982S414.833,76.939,403.534,94.49
	z"/>
<g>
	<path style="fill:#CC894F;" d="M383.563,98.951c0,0-14.319-18.483,5.162-60.167c7.625-16.316,26.399-24.186,45.65-26.219
		c-24.833-2.621-56.119,3.901-66.547,26.219c-19.481,41.684-5.162,60.167-5.162,60.167c-9.677,35.198-31.171,133.68-50.196,133.68
		h20.898C352.392,232.631,373.886,134.15,383.563,98.951z"/>
	<path style="fill:#CC894F;" d="M69.742,436.647v-127.23c0-42.404,34.382-76.785,76.81-76.785h-20.898
		c-42.427,0-76.81,34.381-76.81,76.785v127.23c0,5.987,4.865,10.842,10.853,10.842h20.898
		C74.607,447.489,69.742,442.634,69.742,436.647z"/>
	<path style="fill:#CC894F;" d="M366.584,421.406V409.63c0-7.708-6.249-13.957-13.957-13.957h-6.941v25.733
		c0,14.405,11.678,26.083,26.083,26.083h8.184c2.329,0,4.603-0.236,6.8-0.681C375.199,444.125,366.584,433.774,366.584,421.406z"/>
</g>
<path style="fill:#825732;" d="M388.763,55.516l-7.635-42.333l4.78-0.862c10.322-1.861,20.197,4.997,22.059,15.317l3.944,21.873
	c0.381,2.116-0.882,4.183-2.939,4.809l-14.804,4.5C391.741,59.558,389.213,58.013,388.763,55.516z"/>
<path d="M494.64,82.927c-10.872-6.136-22.945-13.146-24.702-14.46c-1.87-1.523-3.353-3.312-4.407-5.315
	c-1.197-2.277-2.662-4.384-4.35-6.301c8.817-5.011,13.935-13.852,14.469-25.107c0.199-4.146-1.04-10.272-8.072-15.912
	c-13.451-10.79-42.798-14.642-66.809-9.062c-5.029-2.396-10.664-3.165-16.252-2.16l-4.78,0.862c-4.259,0.768-7.09,4.844-6.322,9.103
	l0.772,4.28c-5.926,4.624-10.459,10.184-13.462,16.615c-16.734,35.811-10.53,56.589-6.488,64.62
	c-1.37,5.122-2.924,11.212-4.674,18.072c-5.291,20.738-11.876,46.548-19.127,68.357c-10.792,32.466-17.106,37.549-18.389,38.281
	H235.8c-4.328,0-7.837,3.508-7.837,7.837c0,4.329,3.509,7.837,7.837,7.837h76.664c11.404,0,20.567-13.153,31.626-45.399
	c7.903-23.045,15.275-51.94,20.659-73.037c2.113-8.282,3.938-15.432,5.469-21.008c0.68-2.472,0.332-4.842-1.3-6.803
	c-0.367-0.571-2.702-4.471-3.331-11.994c-0.652-7.797,0.439-21.089,9.337-40.128c0.73-1.564,1.626-3.049,2.649-4.468l3.475,19.272
	c0.611,3.39,2.647,6.364,5.586,8.161c1.915,1.17,4.1,1.772,6.302,1.772c1.178,0,2.36-0.172,3.509-0.521l14.805-4.501
	c5.859-1.782,9.458-7.671,8.372-13.697l-3.944-21.874c-0.366-2.029-0.96-3.98-1.751-5.829c17.97-1.932,36.46,1.719,43.844,7.641
	c1.382,1.109,2.255,2.26,2.223,2.938c-0.293,6.165-2.516,10.128-6.998,12.473c-3.811,1.993-7.837,2.037-7.81,2.038
	c-1.794-0.067-3.517,0.561-4.921,1.656c-0.133,0.103-0.591,0.463-1.294,1.023c-0.029,0.022-0.056,0.046-0.086,0.068
	c-6.208,4.955-31.339,25.525-41.937,41.997c-1.157,1.799-1.529,3.994-1.028,6.074c4.246,17.655,19.905,29.983,38.077,29.983h2.654
	c4.941,0,9.822,3.7,9.98,5.13c0,2.679,1.37,5.174,3.631,6.612l0.684,0.436V272.76c0,4.329,3.508,7.837,7.837,7.837
	s7.837-3.508,7.837-7.837v-132.06l21.995-4.055c13.354-1.574,23.385-12.221,23.385-24.892v-5.33
	C512,95.908,505.06,86.57,494.64,82.927z M395.757,50.146l-5.455-30.248c1.898,0.172,3.729,0.834,5.337,1.95
	c2.447,1.699,4.086,4.249,4.614,7.181l3.376,18.724L395.757,50.146z M496.327,111.752c0,4.739-4.166,8.755-9.69,9.342
	c-0.197,0.021-0.395,0.049-0.59,0.086l-20.473,3.773c-2.731-8.304-10.544-14.32-19.746-14.32h-9.174h-2.654
	c-9.782,0-18.35-5.954-21.845-14.825c8.575-11.623,24.641-25.53,32.77-32.254c2.906,1.694,5.241,4.052,6.737,6.894
	c2.043,3.885,4.863,7.306,8.37,10.162c2.747,2.245,18.452,11.201,27.57,16.34c0.475,0.267,0.977,0.485,1.497,0.648
	c4.325,1.36,7.231,4.907,7.231,8.824v5.33H496.327z"/>
<circle cx="447.864" cy="86.35" r="7.837"/>
<path d="M458.783,312.373c-4.329,0-7.837,3.508-7.837,7.837c0,26.727-15.782,50.998-40.209,61.83
	c-2.833,1.257-4.659,4.066-4.659,7.165v24.334c0,10.869-6.844,20.711-17.018,24.487c-2.921,1.078-5.984,1.626-9.104,1.626h-8.182
	c-0.922,0-1.847-0.071-2.778-0.215c-6.348-0.959-11.779-5.277-14.181-11.279c-0.858-2.134-1.294-4.405-1.294-6.75v-25.735
	c0-4.329-3.508-7.837-7.837-7.837H288.74c-0.017-0.001-0.034,0-0.051,0H117.07c-4.328,0-7.837,3.508-7.837,7.837v17.867
	c0,7.272-3.07,14.27-8.426,19.202c-2.794,2.578-6.175,4.54-9.806,5.693c-0.02,0.006-0.038,0.014-0.057,0.02
	c-2.497,0.795-5.133,1.197-7.832,1.197H59.695c-1.665,0-3.02-1.345-3.02-2.999V309.416c0-9.536,1.905-18.754,5.663-27.404
	c10.947-25.234,35.797-41.54,63.31-41.54h61.733c4.328,0,7.837-3.508,7.837-7.837c0-4.329-3.509-7.837-7.837-7.837h-61.733
	c-30.061,0-57.521,15.872-72.662,41.208c-1.799-0.694-3.74-1.083-5.756-1.083h-9.216c-10.166,0-19.714,3.956-26.873,11.129
	C3.957,283.223,0,292.771,0,302.936c0,4.329,3.509,7.837,7.837,7.837s7.837-3.508,7.837-7.837c0-5.974,2.323-11.582,6.55-15.801
	c4.208-4.216,9.816-6.539,15.789-6.539h8.044c-3.346,9.206-5.055,18.873-5.055,28.818v59.925h-4.838
	c-11.298,0-20.49-9.192-20.49-20.489c0-4.329-3.509-7.837-7.837-7.837S0,344.521,0,348.85c0,19.941,16.223,36.162,36.164,36.162
	h4.838v51.639c0,10.296,8.385,18.672,18.693,18.672h1.839v44.659c0,4.329,3.509,7.837,7.837,7.837h38.097
	c4.328,0,7.837-3.508,7.837-7.837v-10.261c0-9.493-5.817-17.747-14.148-21.232v-17.279c0.843-0.405,1.676-0.834,2.492-1.295
	c3.398,3.369,8.065,5.409,13.16,5.409h3.459v44.659c0,4.329,3.509,7.837,7.837,7.837h38.087c4.328,0,7.837-3.508,7.837-7.837
	v-10.261c0-9.494-5.817-17.748-14.148-21.232v-18.077c13.435-7.185,22.141-21.374,22.141-36.876v-10.031h94.562l-4.005,9.087
	c-5.386,12.234-2.373,26.418,6.826,35.467l-13.154,30.191c-1.358,3.129-1.886,6.531-1.539,9.888
	c-0.005,0.191-0.008,0.382-0.008,0.578v11.264c0,4.329,3.508,7.837,7.837,7.837h38.097c4.329,0,7.837-3.508,7.837-7.837v-10.261
	c0-6.234-2.558-12.119-6.862-16.377l5.349-12.29c11.973-0.925,23.1-6.694,30.806-15.716c3.45,3.455,7.617,6.155,12.22,7.866v46.779
	c0,4.329,3.508,7.837,7.837,7.837h38.098c4.329,0,7.837-3.508,7.837-7.837v-10.261c0-9.493-5.817-17.747-14.148-21.232v-18.075
	c13.435-7.185,22.14-21.375,22.14-36.877v-19.414c27.419-14.256,44.868-42.727,44.868-73.915
	C466.62,315.881,463.112,312.373,458.783,312.373z M99.631,492.146H77.208v-36.822h5.904c0.794,0,1.584-0.029,2.372-0.073v19.341
	c0,4.132,3.207,7.554,7.33,7.82c3.823,0.248,6.818,3.459,6.818,7.309V492.146z M158.354,492.146h-22.413v-36.822h4.284
	c1.336,0,2.663-0.066,3.981-0.191v19.459c0,4.132,3.208,7.554,7.33,7.82c3.823,0.248,6.818,3.459,6.818,7.309V492.146z
	 M166.348,413.538c0,10.869-6.844,20.711-17.038,24.493c-2.886,1.073-5.942,1.619-9.084,1.619h-23.416
	c-0.328,0-0.646-0.062-0.947-0.164c5.804-7.334,9.045-16.495,9.045-25.948v-10.031h41.441V413.538z M302.801,492.146h-22.423v-3.427
	c0-0.089,0.002-0.176,0.009-0.261c0.016-0.198,0.022-0.409,0.022-0.606c0-0.385-0.028-0.768-0.085-1.149
	c-0.11-0.746-0.008-1.489,0.3-2.198l12.316-28.268l2.798,1.218c1.61,0.699,3.251,1.29,4.913,1.796l-5.926,13.613
	c-1.694,3.891,0.019,8.424,3.861,10.224c2.559,1.198,4.212,3.802,4.212,6.633v2.425H302.801z M312.183,445.481
	c-3.505-0.178-6.938-0.985-10.194-2.4l-6.791-2.955c-0.714-0.308-1.401-0.67-2.076-1.094c-6.742-4.185-9.406-12.834-6.199-20.118
	l6.789-15.406h44.135v17.899c0,3.106,0.422,6.149,1.241,9.084C333.741,440.078,323.25,446.006,312.183,445.481z M398.085,492.146
	h-22.424v-36.822h4.295c1.334,0,2.662-0.067,3.982-0.193v19.461c0,4.132,3.207,7.554,7.33,7.82c3.823,0.248,6.818,3.459,6.818,7.309
	v2.425H398.085z"/>
<g>
</g>
<g>
</g>
<g>
</g>
<g>
</g>
<g>
</g>
<g>
</g>
<g>
</g>
<g>
</g>
<g>
</g>
<g>
</g>
<g>
</g>
<g>
</g>
<g>
</g>
<g>
</g>
<g>
</g>
</svg>
